<?xml version="1.0" standalone="no"?>
<!DOCTYPE svg PUBLIC "-//W3C//DTD SVG 20010904//EN"
 "http://www.w3.org/TR/2001/REC-SVG-20010904/DTD/svg10.dtd">
<svg version="1.0" xmlns="http://www.w3.org/2000/svg"
 width="1024.000000pt" height="1024.000000pt" viewBox="0 0 1024.000000 1024.000000"
 preserveAspectRatio="xMidYMid meet">

<g transform="translate(0.000000,1024.000000) scale(0.100000,-0.100000)"
fill="white" stroke="none">
<path d="M3316 8818 c9 -18 88 -164 175 -324 88 -161 159 -294 159 -297 0 -3
-125 -7 -277 -9 l-278 -3 -61 -28 c-73 -34 -135 -94 -166 -162 l-23 -50 -3
-1413 -2 -1412 -357 -538 c-196 -295 -368 -559 -382 -587 -22 -43 -26 -63 -26
-135 0 -69 5 -93 23 -128 33 -62 95 -118 160 -144 l57 -22 2570 -3 c1414 -2
2683 0 2820 5 219 7 256 11 296 29 66 29 114 76 146 141 35 72 38 172 6 242
-11 25 -174 276 -362 559 -189 282 -353 534 -364 559 l-22 47 3 916 2 915 98
66 c53 36 190 127 305 202 114 74 219 146 233 160 l27 24 -38 64 c-68 113
-185 278 -350 493 -88 116 -165 216 -169 224 -6 9 -1 20 15 32 24 18 22 19
-106 19 -225 0 -383 19 -1170 140 -181 28 -465 71 -630 96 -726 108 -850 126
-1010 149 -93 14 -240 36 -325 50 -85 14 -335 52 -555 85 -220 34 -408 63
-418 66 -18 6 -18 4 -1 -28z m829 -442 c88 -14 268 -41 400 -61 132 -19 312
-46 400 -60 88 -14 324 -50 525 -80 392 -59 575 -88 905 -140 116 -18 314 -48
442 -66 127 -19 230 -37 227 -40 -2 -4 -85 -57 -183 -118 -124 -76 -189 -111
-209 -111 -17 0 -108 11 -204 25 -95 15 -185 24 -200 21 -15 -3 -30 -1 -33 4
-3 6 -14 10 -23 10 -14 0 -13 -2 2 -13 16 -12 11 -15 -50 -31 -38 -10 -98 -27
-134 -38 -103 -33 -97 -32 -80 -18 12 9 5 10 -30 7 -25 -2 -54 -7 -65 -11 -11
-4 -7 0 9 9 20 12 43 16 74 12 46 -5 126 16 139 36 4 6 0 8 -10 4 -53 -22 -53
-21 -40 -5 7 8 10 17 7 20 -3 3 15 3 39 1 27 -3 47 -1 51 6 5 7 -4 9 -26 6
-30 -5 -31 -5 -9 5 14 6 37 8 52 5 15 -3 30 -1 34 4 4 7 -4 11 -18 11 -14 0
-78 9 -143 20 -65 11 -125 18 -133 15 -8 -3 -17 -2 -20 3 -6 7 -299 54 -366
58 -16 1 -37 4 -45 7 -8 3 -64 13 -125 22 -60 9 -146 23 -190 31 -117 21 -699
104 -703 99 -12 -12 87 -95 163 -136 22 -12 42 -25 45 -28 3 -3 22 -15 43 -26
23 -12 35 -25 32 -33 -4 -10 0 -12 11 -8 18 7 57 -17 46 -29 -4 -5 -1 -5 6 -1
16 10 84 -32 75 -47 -4 -7 0 -8 11 -4 9 4 15 3 12 -2 -5 -8 16 -23 36 -25 11
-2 120 -70 139 -88 9 -9 20 -14 23 -10 3 3 6 1 6 -5 0 -5 12 -15 27 -22 53
-24 133 -83 126 -94 -4 -6 -1 -7 6 -3 7 5 20 1 31 -9 18 -16 18 -18 -1 -73
-10 -31 -23 -66 -28 -77 -6 -11 -20 -51 -32 -89 -17 -51 -24 -64 -29 -50 -6
15 -9 13 -15 -14 -4 -18 -9 -31 -12 -29 -2 3 0 21 5 39 7 25 6 35 -2 35 -8 0
-12 -23 -12 -65 l0 -64 17 38 c10 22 18 35 18 29 1 -9 -29 -95 -48 -140 -5
-11 -15 -36 -22 -55 -7 -19 -19 -44 -28 -54 -11 -13 -11 -17 -2 -11 18 10 12
-9 -91 -285 l-10 -25 -15 30 c-8 17 -50 91 -93 165 -43 74 -174 306 -291 515
-380 680 -435 778 -533 952 -53 94 -96 174 -96 178 0 4 12 4 28 1 15 -3 99
-17 187 -30z m3505 -646 c66 -88 123 -165 125 -173 5 -12 -266 -193 -754 -503
-123 -78 -701 -447 -766 -489 -27 -18 -114 -74 -193 -124 -78 -51 -147 -89
-152 -86 -14 9 -260 355 -260 366 0 5 12 16 28 26 39 24 139 88 272 173 63 40
149 94 190 120 41 26 134 84 205 130 121 78 262 167 830 525 121 77 245 156
275 176 38 25 59 34 67 27 7 -5 66 -81 133 -168z m-2441 121 c14 -11 13 -12
-8 -6 -21 6 -23 5 -16 -11 4 -11 8 -38 9 -61 2 -24 10 -51 19 -61 9 -10 17
-22 17 -27 0 -22 -40 49 -63 113 -31 83 -33 95 -11 67 14 -19 15 -19 21 5 4
16 8 19 11 10 2 -8 12 -21 21 -29z m100 25 c-2 -2 -24 -6 -49 -9 -30 -4 -38
-3 -25 3 19 8 83 14 74 6z m96 -16 c13 -5 14 -9 5 -9 -8 0 -24 4 -35 9 -13 5
-14 9 -5 9 8 0 24 -4 35 -9z m-78 -6 c-3 -3 -12 -4 -19 -1 -8 3 -5 6 6 6 11 1
17 -2 13 -5z m300 -30 c-3 -3 -12 -4 -19 -1 -8 3 -5 6 6 6 11 1 17 -2 13 -5z
m80 -10 c-3 -3 -12 -4 -19 -1 -8 3 -5 6 6 6 11 1 17 -2 13 -5z m-1775 -109
c27 -49 76 -137 108 -195 31 -58 180 -325 330 -595 333 -599 306 -550 368
-666 l52 -95 -34 -70 c-18 -38 -61 -126 -94 -196 -34 -70 -62 -130 -62 -132 0
-3 199 -7 443 -8 l442 -3 -100 -59 c-55 -32 -156 -92 -224 -132 l-123 -74
-719 -5 -719 -5 0 888 0 887 -89 130 c-49 72 -93 135 -98 140 -4 6 -43 63 -86
127 -43 65 -83 120 -88 123 -30 19 10 25 179 28 103 1 249 3 325 2 l139 0 50
-90z m1718 85 c0 -5 -11 -10 -25 -10 -14 0 -25 5 -25 10 0 6 11 10 25 10 14 0
25 -4 25 -10z m63 3 c-7 -2 -19 -2 -25 0 -7 3 -2 5 12 5 14 0 19 -2 13 -5z
m130 -10 c-7 -2 -19 -2 -25 0 -7 3 -2 5 12 5 14 0 19 -2 13 -5z m81 -2 c3 -4
-6 -6 -19 -3 -14 2 -25 6 -25 8 0 8 39 4 44 -5z m-231 -18 c-7 -2 -19 -2 -25
0 -7 3 -2 5 12 5 14 0 19 -2 13 -5z m120 0 c-7 -2 -19 -2 -25 0 -7 3 -2 5 12
5 14 0 19 -2 13 -5z m-542 -75 c6 -13 8 -20 4 -16 -5 4 -15 2 -23 -5 -13 -10
-15 -9 -9 6 4 10 7 23 7 28 0 16 9 10 21 -13z m535 -23 c-13 -10 -15 -15 -6
-15 7 0 11 -3 7 -6 -3 -3 -16 -3 -28 1 -22 7 -22 8 7 20 38 18 43 17 20 0z
m-566 -30 c0 -5 -5 -3 -10 5 -5 8 -10 20 -10 25 0 6 5 3 10 -5 5 -8 10 -19 10
-25z m40 -10 c0 -5 -5 -3 -10 5 -5 8 -10 20 -10 25 0 6 5 3 10 -5 5 -8 10 -19
10 -25z m630 31 c0 -9 -30 -14 -35 -6 -4 6 3 10 14 10 12 0 21 -2 21 -4z m-60
-25 c-8 -5 -28 -11 -45 -15 l-30 -6 25 15 c14 8 34 14 45 14 16 0 17 -1 5 -8z
m-597 -16 c-3 -9 -8 -14 -10 -11 -3 3 -2 9 2 15 9 16 15 13 8 -4z m463 -27
c-10 -5 -32 -12 -49 -14 -18 -2 -48 -6 -67 -9 l-35 -4 35 10 c19 6 45 11 57
11 13 0 21 3 19 7 -2 3 10 7 26 7 24 1 27 -1 14 -8z m-446 -33 c0 -5 -5 -3
-10 5 -5 8 -10 20 -10 25 0 6 5 3 10 -5 5 -8 10 -19 10 -25z m277 19 c-3 -3
-12 -4 -19 -1 -8 3 -5 6 6 6 11 1 17 -2 13 -5z m30 -30 c-3 -3 -12 -4 -19 -1
-8 3 -5 6 6 6 11 1 17 -2 13 -5z m-293 -20 c3 -8 2 -12 -4 -9 -6 3 -10 10 -10
16 0 14 7 11 14 -7z m256 12 c0 -2 -7 -7 -16 -10 -8 -3 -12 -2 -9 4 6 10 25
14 25 6z m-234 -51 c2 -30 -11 -33 -19 -5 -3 10 0 21 7 24 6 2 11 5 11 5 0 1
1 -10 1 -24z m137 18 c-7 -2 -19 -2 -25 0 -7 3 -2 5 12 5 14 0 19 -2 13 -5z
m213 -1078 c135 -203 249 -375 251 -382 4 -10 -73 -13 -371 -13 -207 0 -376 3
-376 8 0 4 4 22 9 40 9 32 8 34 -55 84 -36 29 -63 57 -62 63 7 25 342 575 349
573 4 -2 119 -169 255 -373z m977 5 c-7 -8 -52 -7 -47 1 2 4 15 6 28 5 13 0
22 -3 19 -6z m-141 -70 c-42 -26 -56 -26 -17 0 17 11 35 20 40 20 6 0 -5 -9
-23 -20z m265 -42 c-3 -8 -6 -5 -6 6 -1 11 2 17 5 13 3 -3 4 -12 1 -19z m-427
-52 c0 -2 -8 -10 -17 -17 -16 -13 -17 -12 -4 4 13 16 21 21 21 13z m65 -6 c3
-6 -1 -7 -9 -4 -18 7 -21 14 -7 14 6 0 13 -4 16 -10z m506 -76 c-11 -15 -21
-24 -21 -20 0 10 34 55 39 51 2 -2 -6 -16 -18 -31z m-51 -68 c0 -2 -8 -10 -17
-17 -16 -13 -17 -12 -4 4 13 16 21 21 21 13z m-277 -119 c4 3 7 4 7 0 0 -17
-20 -14 -36 6 -19 22 -19 22 2 4 11 -9 24 -14 27 -10z m94 4 c0 -11 -5 -18 -9
-15 -4 3 -5 11 -1 19 7 21 12 19 10 -4z m-38 -37 c-6 -7 -15 -11 -21 -8 -5 3
-4 12 3 20 6 7 15 11 21 8 5 -3 4 -12 -3 -20z m94 -14 c-3 -11 -10 -23 -16
-27 -5 -3 -8 -2 -5 3 3 5 8 17 11 27 9 24 16 22 10 -3z m-69 -14 c-7 -17 -28
-18 -22 -1 2 6 6 9 11 8 4 -2 7 2 7 9 0 6 2 9 5 6 3 -3 3 -13 -1 -22z m66 -61
c11 -13 10 -14 -4 -9 -9 3 -16 10 -16 15 0 13 6 11 20 -6z m70 -49 c-7 -7 -13
-7 -20 0 -6 6 -3 10 10 10 13 0 16 -4 10 -10z m167 -123 c-4 -3 -1 -13 6 -22
11 -14 10 -14 -5 -2 -16 12 -16 31 -1 31 4 0 3 -3 0 -7z m98 -671 c366 -571
594 -929 664 -1044 l23 -38 -1136 0 -1135 0 -3 63 -3 62 -52 0 c-29 -1 -186
-2 -348 -3 l-295 -2 0 -60 0 -60 -1130 0 c-621 0 -1130 2 -1130 5 0 5 28 50
305 492 77 123 179 286 226 363 48 77 110 176 139 220 l53 80 1886 0 1886 0
50 -78z"/>
<path d="M4485 7923 c2 -10 20 -47 40 -83 20 -36 34 -58 32 -50 -2 8 -1 25 4
37 6 16 3 23 -9 29 -9 4 -20 6 -24 6 -5 -1 -8 5 -8 13 0 19 9 19 31 -1 14 -12
18 -13 25 -2 4 7 4 10 0 6 -5 -4 -20 4 -35 18 -40 38 -61 48 -56 27z m35 -24
c0 -14 -17 -10 -23 5 -4 10 -1 13 9 9 7 -3 14 -9 14 -14z m30 -64 c0 -8 -2
-15 -4 -15 -2 0 -6 7 -10 15 -3 8 -1 15 4 15 6 0 10 -7 10 -15z"/>
<path d="M4645 7820 c-9 -15 1 -26 41 -45 26 -12 39 -14 47 -6 8 8 7 11 -3 12
-8 1 -19 2 -25 4 -5 1 -15 3 -22 3 -7 1 -11 8 -9 15 1 6 1 9 -1 5 -8 -15 -25
-8 -19 7 6 17 0 20 -9 5z"/>
<path d="M4591 7725 c29 -50 49 -81 49 -74 0 12 -30 65 -51 89 -19 23 -19 22
2 -15z"/>
<path d="M4605 7750 c3 -5 8 -10 11 -10 2 0 4 5 4 10 0 6 -5 10 -11 10 -5 0
-7 -4 -4 -10z"/>
<path d="M4805 7730 c3 -5 -3 -17 -14 -26 -10 -9 -17 -23 -14 -30 7 -18 23
-18 23 0 0 8 5 18 12 22 6 4 8 3 5 -3 -4 -6 7 -10 26 -10 l32 0 -34 14 c-24
10 -31 17 -22 22 10 6 9 10 -4 14 -9 4 -13 3 -10 -3z"/>
<path d="M4702 7660 c-7 -11 -8 -20 -3 -20 9 0 24 30 18 36 -1 2 -8 -6 -15
-16z"/>
<path d="M4887 7674 c-3 -4 1 -13 11 -20 21 -16 32 -17 32 -4 0 6 -6 10 -14
10 -8 0 -16 5 -18 11 -2 5 -7 7 -11 3z"/>
<path d="M4655 7660 c3 -5 8 -10 11 -10 2 0 4 5 4 10 0 6 -5 10 -11 10 -5 0
-7 -4 -4 -10z"/>
<path d="M4880 7640 c0 -6 6 -10 14 -10 8 0 18 -5 22 -12 5 -8 0 -9 -16 -5
-16 4 -20 3 -12 -5 11 -11 42 -4 42 10 0 5 -11 14 -25 20 -15 7 -25 8 -25 2z"/>
<path d="M4662 7598 c10 -21 23 -38 28 -38 6 0 10 -7 10 -15 0 -8 8 -28 19
-45 15 -25 20 -28 25 -15 4 11 2 14 -6 9 -8 -5 -9 -2 -5 9 4 10 2 16 -5 14
-12 -2 -14 4 -17 38 0 8 -8 15 -16 15 -15 0 -31 42 -22 57 3 5 -2 9 -12 9 -16
0 -16 -3 1 -38z"/>
<path d="M4957 7624 c-6 -6 4 -54 12 -54 4 0 14 8 23 19 15 17 14 19 -7 29
-13 6 -25 9 -28 6z m28 -22 c-3 -3 -11 0 -18 7 -9 10 -8 11 6 5 10 -3 15 -9
12 -12z"/>
<path d="M5003 7552 c-42 -16 -43 -17 -43 -64 0 -26 -4 -48 -10 -48 -5 0 -10
-18 -10 -40 l0 -40 50 0 50 0 0 -40 c0 -36 -2 -40 -25 -40 -23 0 -25 -3 -25
-49 0 -41 4 -53 26 -70 23 -18 25 -26 23 -75 -1 -31 0 -59 4 -63 4 -3 7 -1 7
5 0 7 4 12 9 12 5 0 0 -18 -12 -40 l-22 -39 -22 42 c-12 23 -22 37 -23 31 0
-15 61 -136 67 -130 2 2 0 13 -6 24 -14 27 -14 33 2 30 6 -2 12 4 12 12 1 19
25 63 32 57 2 -3 -1 -14 -8 -24 -9 -15 -9 -25 -1 -39 11 -18 11 -17 12 7 0 14
5 30 11 36 8 8 8 13 0 17 -7 5 -11 53 -11 132 0 104 2 124 15 124 12 0 15 16
15 83 l0 83 39 -1 c32 0 38 3 37 19 -1 11 -8 21 -16 23 -13 4 -13 3 0 -6 8 -5
11 -13 7 -17 -4 -4 -15 0 -25 9 -26 24 -39 21 -17 -3 10 -11 13 -20 7 -20 -15
0 -27 20 -27 47 -1 18 2 20 20 12 20 -10 20 -10 1 5 -11 9 -28 14 -38 10 -13
-4 -16 -1 -12 10 5 12 2 15 -10 10 -9 -3 -16 -10 -16 -15 0 -15 -17 -10 -23 6
-4 8 -1 17 5 21 7 4 8 3 4 -4 -4 -7 -3 -12 3 -12 17 0 21 18 5 24 -9 3 -16 6
-17 5 -1 0 -21 -8 -44 -17z"/>
<path d="M4766 7494 c-4 -14 -5 -28 -3 -31 3 -2 8 8 11 23 4 14 5 28 3 31 -3
2 -8 -8 -11 -23z"/>
<path d="M4750 7445 c0 -5 5 -17 10 -25 5 -8 10 -10 10 -5 0 6 -5 17 -10 25
-5 8 -10 11 -10 5z"/>
<path d="M5241 7414 c0 -11 3 -14 6 -6 3 7 2 16 -1 19 -3 4 -6 -2 -5 -13z"/>
<path d="M4781 7395 c0 -17 45 -85 52 -78 12 11 8 25 -5 17 -8 -5 -9 -2 -5 10
4 10 3 15 -3 11 -5 -3 -16 7 -24 22 -8 15 -15 24 -15 18z"/>
<path d="M4850 7271 c0 -5 5 -13 10 -16 6 -3 10 -2 10 4 0 5 -4 13 -10 16 -5
3 -10 2 -10 -4z"/>
<path d="M5131 7264 c0 -11 3 -14 6 -6 3 7 2 16 -1 19 -3 4 -6 -2 -5 -13z"/>
<path d="M5181 7263 c0 -12 -5 -25 -11 -28 -5 -3 -10 -14 -10 -23 1 -11 6 -8
16 11 8 16 13 36 11 45 -3 12 -5 11 -6 -5z"/>
<path d="M5124 7228 c3 -15 26 -23 26 -8 0 6 -4 9 -9 6 -5 -4 -12 -1 -14 4 -3
6 -4 5 -3 -2z"/>
<path d="M4910 7159 c12 -23 24 -39 26 -36 7 7 -28 77 -38 77 -5 0 1 -18 12
-41z"/>
<path d="M4940 7105 c0 -5 5 -17 10 -25 5 -8 10 -10 10 -5 0 6 -5 17 -10 25
-5 8 -10 11 -10 5z"/>
<path d="M5062 6930 c0 -14 2 -19 5 -12 2 6 2 18 0 25 -3 6 -5 1 -5 -13z"/>
<path d="M5167 7820 c3 -11 9 -22 13 -25 5 -3 6 4 3 15 -3 11 -9 22 -13 25 -5
3 -6 -4 -3 -15z"/>
<path d="M3337 4890 l-48 -90 255 0 c141 0 259 0 264 -1 5 -1 82 165 82 178 0
2 -114 3 -252 3 l-253 0 -48 -90z"/>
<path d="M4065 4968 c-2 -7 -15 -46 -30 -87 -14 -41 -24 -75 -22 -77 1 -2 104
-4 227 -5 l225 -1 21 63 c12 35 24 76 28 92 l6 27 -225 0 c-172 0 -227 -3
-230 -12z"/>
<path d="M4685 4908 c-9 -40 -18 -81 -21 -90 -5 -17 21 -18 446 -18 l452 0 -6
28 c-4 15 -14 55 -23 90 l-16 62 -408 0 -407 0 -17 -72z"/>
<path d="M5726 4898 c13 -46 24 -86 24 -90 0 -11 470 -10 470 1 0 5 -6 24 -13
42 -8 19 -22 55 -31 82 l-18 47 -228 0 -228 0 24 -82z"/>
<path d="M6378 4891 l37 -90 263 -3 c170 -2 262 1 262 7 0 6 -20 46 -44 90
l-44 80 -255 3 -256 2 37 -89z"/>
<path d="M3212 4663 c-6 -10 -28 -53 -51 -96 -22 -42 -41 -79 -41 -82 0 -3
129 -5 288 -5 l287 0 35 92 c19 51 37 96 38 100 2 4 -120 8 -272 8 -252 0
-276 -1 -284 -17z"/>
<path d="M3955 4668 c-3 -7 -18 -52 -34 -100 l-30 -88 252 0 252 0 26 100 25
100 -243 0 c-186 0 -245 -3 -248 -12z"/>
<path d="M4625 4658 c-27 -120 -35 -155 -35 -165 0 -10 112 -13 526 -13 496 0
525 1 520 18 -3 9 -10 36 -15 60 -6 23 -16 60 -21 82 l-11 40 -479 0 -480 0
-5 -22z"/>
<path d="M5784 4663 c2 -10 9 -36 15 -58 5 -22 15 -59 21 -82 l11 -43 254 0
c140 0 255 3 255 8 0 4 -15 48 -34 97 l-34 90 -247 3 c-232 2 -246 1 -241 -15z"/>
<path d="M6472 4668 c3 -7 20 -52 38 -100 l33 -88 288 0 c159 0 289 3 289 6 0
3 -23 48 -51 100 l-51 94 -275 0 c-216 0 -274 -3 -271 -12z"/>
<path d="M4366 4318 c-24 -84 -36 -132 -36 -140 0 -5 354 -8 786 -8 l787 0 -7
32 c-3 17 -15 62 -27 100 l-20 68 -734 0 -734 0 -15 -52z"/>
<path d="M8133 8500 c-64 -13 -131 -46 -182 -88 -24 -20 -51 -39 -58 -42 -9
-4 30 -63 118 -180 105 -141 189 -261 325 -468 6 -9 123 80 161 121 49 53 71
93 89 162 25 92 11 203 -37 297 -31 61 -120 145 -182 173 -62 27 -170 38 -234
25z"/>
<path d="M7679 8307 l-56 -32 22 -30 c216 -289 483 -675 508 -735 l13 -29 37
26 c36 26 37 28 37 90 0 63 -1 65 -82 186 -44 67 -106 154 -137 193 -31 39
-103 132 -160 207 -57 75 -109 141 -115 146 -7 6 -30 -1 -67 -22z"/>
<path d="M2286 7560 c-103 -41 -152 -120 -144 -234 3 -53 10 -74 34 -108 86
-124 269 -132 367 -17 75 87 75 199 1 296 -54 71 -169 99 -258 63z"/>
<path d="M7830 6755 l0 -64 -72 -3 -72 -3 1 -30 c1 -86 1 -86 28 -79 14 3 45
3 70 0 l45 -7 0 -65 0 -64 55 0 55 0 0 64 0 65 70 7 70 7 0 53 0 54 -70 0 -70
0 0 65 0 65 -55 0 -55 0 0 -65z"/>
<path d="M2293 6206 c-84 -27 -131 -79 -154 -169 -35 -139 76 -279 221 -279
202 0 306 225 175 380 -55 66 -159 95 -242 68z"/>
<path d="M2533 2886 c-209 -40 -358 -131 -478 -289 -197 -263 -227 -596 -79
-877 107 -203 283 -348 495 -406 101 -28 302 -26 399 5 165 51 309 152 407
285 24 32 43 62 43 66 0 4 -44 33 -97 65 -54 32 -128 78 -165 102 l-67 44 -58
-59 c-67 -68 -116 -96 -195 -111 -203 -37 -394 106 -431 323 -31 183 71 376
231 436 47 18 72 21 142 18 110 -6 167 -31 246 -110 l62 -60 43 29 c24 16 99
63 167 103 67 41 122 79 122 85 0 16 -125 153 -184 201 -72 59 -168 109 -256
134 -97 27 -252 34 -347 16z"/>
<path d="M4155 2885 c-157 -30 -274 -89 -388 -196 -133 -123 -208 -261 -247
-450 -71 -339 97 -697 400 -854 138 -71 220 -90 380 -89 163 1 239 17 366 79
195 95 338 275 406 512 30 103 32 313 4 413 -57 206 -191 387 -364 490 -159
94 -370 130 -557 95z m303 -424 c69 -31 153 -121 183 -198 20 -49 24 -76 24
-173 0 -104 -3 -120 -27 -172 -15 -32 -50 -81 -78 -108 -118 -119 -285 -141
-443 -57 -137 72 -217 245 -188 402 29 159 117 270 251 319 66 24 208 17 278
-13z"/>
<path d="M7225 2882 l-140 -3 1 -767 c0 -422 1 -777 2 -789 l2 -23 560 0 560
0 0 190 0 190 -355 0 -355 0 0 125 0 125 290 0 290 0 0 180 0 180 -290 0 -290
0 0 105 0 105 355 0 355 0 0 189 0 188 -112 7 c-102 6 -508 5 -873 -2z"/>
<path d="M5398 2090 l2 -792 343 5 c372 5 418 10 567 68 111 43 195 96 272
172 189 188 264 472 197 753 -6 27 -33 94 -59 149 -99 203 -266 344 -485 406
-76 22 -101 23 -460 27 l-380 3 3 -791z m619 396 c150 -8 259 -80 326 -216 30
-61 32 -70 32 -180 0 -110 -2 -119 -32 -181 -76 -154 -230 -229 -469 -229
l-64 0 0 409 0 409 63 -4 c34 -2 99 -5 144 -8z"/>
</g>
</svg>
